<?xml version="1.0" standalone="no"?>
<!DOCTYPE svg PUBLIC "-//W3C//DTD SVG 20010904//EN"
        "http://www.w3.org/TR/2001/REC-SVG-20010904/DTD/svg10.dtd">
<svg version="1.0" xmlns="http://www.w3.org/2000/svg"
     width="782.000000pt" height="1280.000000pt" viewBox="0 0 782.000000 1280.000000"
     preserveAspectRatio="xMidYMid meet">
    <metadata>
        Created by potrace 1.16, written by Peter Selinger 2001-2019
    </metadata>
    <g transform="translate(0.000000,1280.000000) scale(0.100000,-0.100000)"
       fill="#000000" stroke="none">
        <path d="M0 11915 l0 -885 24 -9 c13 -5 26 -17 29 -25 4 -9 15 -16 26 -16 11
0 23 -4 26 -10 3 -5 16 -10 28 -10 13 0 37 -17 60 -42 26 -28 41 -38 46 -30 8
14 51 -11 51 -31 1 -26 38 -57 69 -57 20 0 34 -6 38 -16 12 -32 89 -101 126
-113 26 -9 37 -18 37 -32 0 -10 7 -19 15 -19 8 0 24 -6 35 -12 17 -11 22 -10
30 2 9 13 15 10 40 -17 33 -37 40 -40 40 -18 0 8 9 15 19 15 11 0 23 5 27 11
3 6 16 8 29 5 19 -5 24 -1 29 25 7 38 18 31 47 -26 12 -25 26 -45 29 -45 4 0
12 -11 18 -25 11 -25 36 -26 45 -2 2 7 3 3 1 -9 -3 -17 1 -20 19 -17 14 3 37
29 67 78 91 147 340 512 385 561 6 6 50 58 100 115 49 57 164 180 255 272 205
209 319 289 662 465 392 202 826 347 1156 388 411 50 843 46 1167 -11 558 -99
943 -201 1190 -315 22 -10 83 -37 135 -60 126 -55 237 -116 400 -218 140 -88
341 -228 414 -290 24 -21 63 -53 87 -72 53 -41 323 -312 395 -395 103 -120
241 -310 284 -394 10 -20 28 -46 39 -58 12 -12 21 -25 21 -27 0 -9 70 -116 75
-116 3 0 5 63 5 140 0 118 -2 140 -15 140 -8 0 -15 5 -15 10 0 6 7 10 15 10
13 0 15 122 15 1035 l0 1035 -3910 0 -3910 0 0 -885z"/>
        <path d="M6080 11872 c0 -5 -51 -9 -114 -9 -94 1 -117 -2 -130 -16 -10 -9 -32
-18 -49 -19 -27 -1 -25 -2 13 -8 l45 -7 -50 -1 c-45 0 -115 13 -90 18 14 2
-26 18 -48 19 -10 1 -15 -3 -12 -9 4 -6 -19 -8 -60 -5 -63 4 -65 4 -65 -20 0
-13 -6 -26 -12 -28 -10 -4 -10 -6 0 -6 6 -1 12 -7 12 -15 0 -17 -53 -28 -83
-17 -12 5 -30 5 -40 2 -16 -6 -16 -7 1 -22 11 -9 25 -19 33 -22 11 -4 11 -6
-2 -6 -8 -1 -19 3 -25 9 -14 14 -145 14 -176 0 -16 -7 -28 -20 -28 -27 0 -8
-8 -13 -17 -12 -40 4 -63 -2 -63 -15 0 -7 -6 -19 -14 -25 -8 -6 -16 -26 -18
-44 -3 -18 -8 -40 -13 -49 -5 -14 -2 -18 14 -18 27 0 27 -16 1 -23 -11 -3 -20
-9 -19 -14 4 -25 -3 -41 -22 -46 -12 -3 -18 -10 -15 -16 4 -6 -3 -20 -14 -31
-19 -19 -23 -20 -44 -7 -101 67 -713 264 -946 306 -120 21 -294 40 -478 52
-505 34 -1042 -69 -1430 -272 -75 -39 -152 -83 -172 -96 l-35 -25 34 6 c19 3
33 4 30 2 -2 -2 -56 -38 -119 -81 -287 -194 -476 -382 -653 -653 -160 -244
-229 -422 -326 -853 -51 -225 -76 -420 -52 -405 4 3 14 32 21 65 13 63 39 97
65 88 8 -4 15 -17 15 -29 1 -55 44 -64 55 -11 15 70 26 101 40 107 21 8 20
-60 0 -102 -13 -25 -14 -38 -4 -77 10 -38 14 -44 21 -30 6 9 8 30 6 46 -3 16
-1 29 4 29 4 0 8 7 8 15 0 22 27 18 45 -7 17 -23 17 -22 12 18 -4 35 0 49 25
85 21 31 28 37 23 19 -4 -14 -14 -32 -21 -41 -18 -20 -18 -38 1 -45 8 -3 23
-21 34 -39 17 -30 19 -51 19 -180 -1 -82 3 -150 8 -153 14 -11 34 -60 34 -87
0 -13 4 -25 10 -27 5 -1 22 -27 37 -57 16 -30 37 -59 48 -65 11 -6 22 -12 24
-14 3 -1 -3 -8 -11 -15 -20 -15 -56 -131 -50 -162 2 -14 18 -30 43 -41 28 -14
39 -25 39 -41 0 -13 5 -23 11 -23 18 0 69 -64 69 -87 0 -13 5 -23 10 -23 6 0
19 -20 30 -45 15 -36 24 -45 44 -45 37 0 56 -10 56 -30 0 -14 9 -20 36 -22 35
-3 36 -5 41 -48 8 -72 5 -118 -11 -143 -13 -19 -13 -29 -2 -67 12 -40 14 -42
19 -20 30 136 36 334 22 786 -7 243 -6 272 15 399 32 203 86 417 127 502 13
29 18 31 46 26 46 -9 87 -42 87 -70 0 -14 6 -23 15 -23 21 0 65 -70 65 -104 0
-20 10 -39 34 -60 18 -18 38 -42 45 -54 6 -12 20 -22 30 -22 19 0 33 -55 76
-292 20 -113 53 -241 103 -407 58 -190 76 -282 68 -361 -12 -109 -27 -121
-231 -170 -66 -16 -145 -38 -175 -49 -46 -16 -57 -17 -73 -6 -17 12 -23 10
-54 -18 -43 -39 -96 -142 -113 -218 -14 -64 -2 -122 30 -139 10 -5 20 -20 23
-32 4 -13 31 -50 62 -82 63 -66 59 -41 40 -221 -11 -104 32 -140 116 -96 51
27 52 26 36 -5 -16 -31 -4 -114 18 -127 7 -4 26 -40 41 -80 42 -111 59 -141
96 -160 22 -12 39 -31 47 -53 7 -20 19 -38 27 -41 8 -3 14 -14 14 -24 0 -46
74 -80 121 -55 50 27 136 74 184 102 28 16 62 35 76 43 60 30 118 96 162 186
42 84 97 238 97 271 0 8 13 28 28 44 16 16 35 49 43 72 19 58 46 85 70 69 10
-6 26 -11 34 -11 26 0 65 -31 65 -51 0 -12 13 -26 35 -36 23 -11 37 -26 41
-43 3 -14 12 -37 20 -52 18 -34 21 -233 2 -222 -8 5 -9 2 -5 -9 3 -9 2 -19 -3
-22 -6 -4 -10 -28 -10 -55 0 -46 -2 -50 -22 -47 -21 2 -23 -3 -28 -68 -6 -74
-17 -106 -30 -86 -3 7 -14 9 -24 5 -19 -7 -13 -42 10 -60 20 -16 17 -37 -5
-51 -17 -10 -19 -8 -25 18 -5 25 -8 28 -20 17 -7 -7 -10 -15 -6 -18 17 -10 29
-59 25 -97 -4 -31 -3 -33 4 -13 8 22 9 21 10 -15 1 -23 -5 -47 -11 -54 -11
-10 -7 -18 18 -39 45 -38 60 -91 39 -136 -9 -19 -15 -47 -12 -63 4 -27 5 -27
12 -5 4 13 16 22 27 22 18 0 20 -5 14 -31 -3 -17 -6 -35 -6 -40 0 -5 -6 -9
-13 -9 -15 0 -41 -56 -34 -74 4 -10 -11 -17 -50 -25 -67 -13 -113 -14 -113 -3
0 9 -2 10 -70 18 -39 4 -49 1 -72 -21 -16 -14 -28 -32 -28 -39 0 -7 -11 -25
-25 -40 -16 -18 -23 -35 -21 -49 3 -12 7 -48 10 -80 l6 -59 -33 6 c-28 5 -29
5 -11 -5 50 -26 56 -91 20 -219 l-7 -25 15 25 c9 14 15 32 16 41 0 13 11 16
51 16 47 0 50 -1 45 -21 -17 -57 -28 -188 -22 -247 6 -58 10 -67 37 -83 34
-20 38 -36 9 -36 -49 0 -100 -34 -177 -118 -71 -77 -87 -89 -136 -103 l-56
-16 -32 33 c-18 19 -38 34 -45 34 -18 0 -38 -95 -37 -173 0 -37 3 -70 6 -73 3
-3 17 2 31 11 24 16 26 16 26 1 0 -22 27 -20 39 3 9 16 43 29 121 45 14 3 39
-2 55 -11 18 -9 51 -15 83 -14 29 1 73 -1 98 -5 l44 -6 0 -43 c0 -64 -17 -99
-69 -143 -32 -27 -59 -64 -81 -107 -29 -59 -33 -74 -31 -138 5 -125 9 -138 55
-180 25 -23 37 -27 66 -23 38 6 176 10 228 8 50 -3 47 -24 -47 -282 -23 -66
-62 -137 -91 -168 -25 -27 -52 -87 -43 -96 4 -3 -6 -6 -20 -6 -36 0 -90 50
-203 190 -190 235 -218 267 -322 375 -59 61 -166 162 -237 227 -72 64 -192
179 -268 255 -75 77 -137 137 -137 133 0 -14 260 -301 452 -499 114 -118 208
-219 208 -223 0 -4 -12 -8 -27 -8 -17 0 -47 17 -87 52 -107 91 -101 87 -86 58
7 -14 40 -53 73 -87 64 -66 101 -80 127 -48 7 8 17 15 22 15 19 0 123 -108
193 -200 40 -52 82 -104 94 -114 42 -38 20 -36 -32 3 -29 22 -71 48 -92 57
-22 8 -62 29 -88 46 -26 17 -51 28 -54 24 -4 -3 12 -25 34 -49 22 -23 57 -73
78 -111 52 -95 94 -120 224 -136 131 -17 366 -8 486 19 50 11 122 27 160 35
269 60 714 251 1135 489 361 204 872 565 1210 855 261 224 699 671 880 898
136 171 307 452 392 647 86 196 181 574 207 827 12 111 38 472 50 677 4 67 10
125 13 129 24 23 30 -389 10 -641 -11 -142 -55 -431 -82 -540 -5 -22 -9 -51
-9 -65 1 -23 2 -22 16 10 14 32 33 110 69 295 8 39 23 151 34 250 11 99 24
216 30 261 5 44 10 94 10 112 0 18 5 32 11 32 7 0 9 10 4 27 -12 49 -12 178 0
208 16 39 2 234 -17 246 -18 11 -25 367 -8 464 15 85 25 108 40 85 5 -8 10
-28 10 -43 0 -18 4 -26 11 -21 9 5 10 -8 5 -47 -11 -89 -8 -268 9 -549 16
-261 20 -488 12 -665 -2 -49 -5 -144 -7 -210 -2 -82 -5 -106 -9 -75 -6 45 -23
58 -29 23 -5 -26 -22 -41 -22 -20 0 9 -4 17 -8 17 -4 0 -6 -16 -4 -35 3 -23
-1 -40 -12 -50 -9 -9 -16 -26 -17 -38 0 -12 -2 -31 -4 -41 -2 -10 -6 -66 -10
-124 -3 -57 -11 -114 -16 -125 -6 -11 -8 -37 -5 -58 3 -21 2 -40 -4 -44 -14
-9 -12 -41 3 -57 8 -7 12 -20 9 -28 -6 -19 -40 -101 -51 -120 -43 -80 -83
-146 -218 -355 -122 -190 -291 -412 -406 -535 -29 -30 -67 -73 -86 -95 -160
-189 -311 -337 -525 -515 -640 -531 -1238 -926 -1897 -1252 -211 -105 -504
-235 -569 -253 -14 -3 -86 -26 -160 -50 -187 -61 -449 -113 -640 -126 -85 -6
-159 -14 -163 -18 -13 -13 4 -42 30 -52 87 -33 507 14 728 82 55 16 111 32
125 35 22 4 22 3 -5 -10 -134 -66 -260 -113 -380 -141 -85 -20 -93 -23 -55
-24 25 0 72 6 105 14 54 13 181 20 145 8 -36 -12 -80 -34 -85 -43 -3 -6 -14
-10 -24 -10 -10 0 -24 -6 -31 -14 -6 -8 -24 -17 -38 -19 -15 -3 14 -5 63 -5
50 0 95 -1 100 -2 59 -9 -502 -100 -616 -100 -38 0 -69 -4 -69 -8 0 -5 11 -18
25 -30 14 -12 25 -29 25 -37 0 -13 -5 -12 -37 2 -21 10 -45 22 -53 29 -8 6
-28 15 -45 18 -41 10 -54 23 -48 46 4 16 0 20 -21 20 -14 0 -26 5 -26 11 0 5
5 7 10 4 6 -3 10 -2 10 3 0 19 -50 42 -90 42 -22 0 -40 5 -40 11 0 6 -12 9
-27 7 -20 -2 -28 -9 -28 -23 0 -11 -8 -21 -18 -23 -18 -4 -24 14 -7 20 6 2 13
21 17 42 5 31 3 38 -8 34 -8 -2 -15 -14 -17 -26 -2 -16 -10 -22 -27 -22 -13 0
-26 -4 -29 -9 -3 -5 -23 -11 -43 -15 -21 -3 -54 -8 -74 -12 -26 -4 -44 -1 -62
11 -15 9 -30 14 -35 11 -6 -3 -15 1 -22 9 -10 12 -9 16 4 21 9 3 16 12 16 20
0 8 5 14 10 14 6 0 10 14 10 31 0 25 6 32 34 44 19 8 38 19 41 25 4 6 9 8 13
6 4 -2 25 7 47 20 22 14 52 30 67 36 22 10 27 17 22 33 -11 37 -33 50 -82 50
-38 0 -46 3 -44 17 1 9 -1 19 -6 22 -13 8 -50 -35 -54 -64 -2 -19 -11 -26 -42
-32 -22 -5 -44 -7 -50 -5 -14 5 85 95 132 122 43 24 50 58 14 63 -17 3 -22 10
-22 32 0 17 7 33 17 39 10 5 15 12 12 16 -4 3 -31 -5 -60 -18 -175 -79 -178
-80 -204 -41 -13 21 -15 31 -6 50 6 13 15 24 20 24 6 0 15 9 21 20 24 45 -23
18 -103 -59 -45 -43 -95 -90 -112 -103 -53 -42 -164 -108 -182 -108 -26 1 -57
26 -43 35 6 4 20 -1 31 -11 19 -17 20 -17 26 4 3 12 11 22 18 22 7 0 39 30 71
66 33 36 92 99 132 140 l73 74 -47 -4 c-36 -3 -51 1 -66 16 -16 16 -28 19 -62
14 -22 -4 -53 -15 -68 -26 -24 -18 -58 -18 -58 -1 0 3 31 24 68 45 152 88 239
157 288 227 l27 39 -24 20 c-28 23 -33 24 -58 8 -15 -9 -25 -7 -55 11 -21 13
-36 31 -36 42 0 29 48 25 82 -8 22 -21 28 -23 28 -10 0 28 -43 87 -64 87 -10
0 -44 -11 -75 -24 -31 -14 -82 -30 -113 -36 -90 -18 -317 -136 -521 -271 -33
-22 -98 -52 -146 -68 -84 -28 -159 -59 -213 -87 -14 -8 -33 -14 -41 -14 -8 0
-17 -7 -21 -15 -3 -8 -14 -15 -24 -15 -11 0 -31 -15 -46 -34 -33 -44 -94 -82
-108 -68 -19 19 -3 57 35 81 25 17 37 32 37 47 0 22 -3 23 -52 20 -29 -2 -64
-6 -78 -10 -24 -5 -60 -39 -60 -57 0 -12 27 -11 35 1 3 6 11 10 16 10 5 0 2
-11 -7 -25 -21 -33 -61 -33 -75 -1 -10 21 -4 30 83 115 64 62 110 117 142 171
26 44 79 112 119 153 40 40 99 101 132 135 l60 63 -100 -51 c-127 -66 -213
-117 -245 -145 -14 -13 -35 -26 -47 -30 -13 -3 -23 -11 -23 -16 0 -5 -7 -9
-16 -9 -9 0 -50 -18 -91 -40 -42 -22 -77 -40 -78 -40 -2 0 -1 10 2 21 6 21 6
21 -21 3 -15 -9 -32 -28 -37 -41 -5 -13 -13 -22 -17 -19 -5 3 -33 -10 -63 -29
-30 -19 -64 -39 -76 -45 l-23 -10 0 -1070 c0 -1185 -6 -1090 66 -1049 36 20
94 19 94 -2 0 -12 34 -11 47 2 7 7 15 5 27 -6 12 -12 25 -15 44 -10 15 4 40 9
56 12 16 3 54 16 84 29 47 21 55 22 69 9 18 -18 23 -18 47 0 28 21 54 19 61
-5 7 -22 20 -26 30 -10 4 6 12 4 21 -5 16 -15 46 -19 119 -15 58 4 77 6 105
14 14 4 50 8 80 10 93 6 170 18 170 27 0 5 18 9 40 9 30 0 40 4 40 16 0 13 9
15 45 12 25 -2 46 0 47 4 2 4 32 12 68 18 61 11 149 16 453 23 81 2 131 7 139
15 15 15 48 16 48 2 0 -6 47 -10 120 -10 73 0 120 4 120 10 0 6 28 10 63 10
34 0 103 5 152 11 50 5 126 10 170 10 44 1 85 5 91 10 6 5 49 14 95 19 97 12
192 38 183 51 -3 5 2 10 10 10 9 1 19 2 24 4 51 14 61 18 57 26 -3 5 6 11 21
15 15 4 44 18 63 31 20 13 44 22 54 19 21 -5 28 8 28 55 1 55 -6 71 -37 84
-43 19 -72 50 -83 92 -14 50 -5 54 30 15 16 -18 29 -29 29 -26 0 4 8 0 18 -8
9 -8 51 -29 92 -48 41 -18 78 -39 83 -46 4 -7 32 -16 62 -19 61 -8 70 -21 25
-38 -19 -7 -28 -17 -25 -25 3 -8 0 -10 -7 -6 -8 5 -9 2 -5 -9 3 -10 2 -17 -3
-17 -6 0 -10 -7 -10 -15 0 -8 -3 -15 -8 -15 -4 0 -22 -24 -39 -53 -26 -44 -34
-69 -39 -133 -6 -69 -4 -86 15 -130 12 -28 39 -68 60 -88 71 -69 250 -83 431
-33 41 11 91 21 111 22 20 1 40 5 45 8 5 3 26 8 46 12 21 4 42 13 49 21 13 16
29 10 29 -12 0 -8 -9 -14 -20 -14 -11 0 -20 -4 -20 -10 0 -5 -10 -10 -23 -10
-13 0 -27 -4 -32 -9 -12 -12 -150 -58 -208 -71 -23 -5 -77 -18 -119 -29 -47
-13 -116 -22 -177 -24 -55 -2 -103 -6 -107 -10 -8 -7 21 -55 45 -75 33 -27
123 -62 160 -62 52 0 266 55 386 100 28 10 95 35 150 55 55 20 150 61 212 91
61 30 127 57 145 61 l33 6 -19 -21 c-11 -12 -23 -22 -28 -22 -4 0 -45 -18 -91
-41 -45 -22 -109 -51 -142 -63 -33 -13 -94 -40 -135 -60 -148 -74 -408 -173
-498 -191 -30 -6 -33 -10 -29 -33 3 -14 0 -33 -6 -43 -8 -12 -6 -26 6 -52 9
-19 17 -55 17 -80 0 -55 8 -77 26 -77 26 0 341 128 532 216 103 48 237 95 262
92 32 -4 70 -69 55 -94 -11 -18 -99 -67 -185 -103 -52 -21 -54 -23 -31 -32 16
-6 28 -6 35 1 20 20 24 9 25 -67 0 -43 3 -106 6 -140 3 -36 1 -63 -4 -63 -5 0
-11 10 -13 23 -2 12 -8 -29 -12 -91 -7 -93 -11 -114 -26 -122 -39 -21 -50 -13
-50 38 0 26 -5 129 -12 230 -13 200 -11 196 -75 165 -32 -15 -33 -17 -16 -24
18 -6 21 -23 31 -161 20 -255 18 -266 -39 -302 -40 -25 -51 -3 -89 174 -50
227 -50 221 26 260 27 13 43 25 36 28 -15 5 -143 -58 -149 -73 -5 -14 52 -313
73 -386 18 -59 15 -58 139 -19 84 26 206 50 199 39 -6 -11 -114 -43 -288 -85
-185 -45 -234 -62 -246 -84 -19 -35 29 -147 68 -157 13 -3 53 2 90 10 37 9 81
18 98 22 53 10 68 35 61 104 -5 41 -3 62 6 69 13 10 149 36 180 34 18 -1 57
-37 57 -53 0 -20 -25 -20 -40 -1 -19 23 -30 19 -30 -10 0 -12 7 -18 21 -18 87
0 -211 -136 -421 -192 -41 -11 -181 -49 -311 -84 -131 -35 -239 -64 -242 -64
-2 0 -7 44 -10 98 -4 53 -13 140 -21 192 -8 52 -26 171 -40 264 -14 93 -24
171 -22 173 1 2 42 15 90 28 146 43 133 25 129 183 -3 122 -2 134 10 112 8
-14 17 -42 21 -62 4 -21 12 -38 18 -38 7 0 7 9 2 27 -5 16 -8 65 -6 110 3 78
2 83 -18 83 -11 0 -20 -6 -20 -12 0 -10 -3 -9 -9 1 -5 7 -6 22 -4 32 4 12 -10
36 -37 69 -46 55 -51 71 -74 245 -14 105 -45 195 -69 195 -31 0 -188 -184
-307 -360 -24 -36 -92 -129 -151 -207 -59 -78 -120 -169 -136 -202 -30 -64
-42 -73 -50 -41 -7 25 -19 26 -33 1 -13 -25 -13 -61 0 -61 12 0 13 -70 1 -88
-4 -8 -16 -12 -26 -10 -15 2 -21 -8 -30 -57 -6 -33 -18 -73 -27 -90 -26 -49
-78 -223 -78 -259 0 -30 3 -34 31 -38 25 -4 35 1 56 29 27 35 58 45 49 16 -67
-228 -74 -266 -80 -445 -7 -218 -4 -238 35 -238 l29 0 0 143 c0 78 5 182 10
231 16 137 85 404 131 509 98 221 149 347 169 414 15 51 27 76 43 84 12 7 65
14 118 17 92 4 97 4 104 -17 9 -28 17 -27 43 9 13 17 32 30 43 30 l21 0 -21
-32 c-13 -21 -28 -32 -40 -31 -14 2 -21 -4 -23 -23 -2 -22 -13 -30 -58 -46
-30 -11 -58 -24 -63 -27 -4 -4 0 -95 9 -202 8 -107 16 -318 17 -469 2 -244 0
-281 -16 -327 -10 -29 -22 -53 -26 -53 -4 0 -15 -13 -24 -30 -14 -22 -15 -30
-5 -30 40 0 280 47 458 89 113 27 252 59 310 72 102 21 230 70 230 87 0 9 50
35 55 30 2 -2 5 -32 7 -68 l3 -65 -45 -6 c-116 -15 -248 -42 -280 -57 -38 -19
-53 -58 -26 -68 9 -3 16 -13 16 -21 0 -12 -3 -13 -14 -4 -11 10 -16 9 -23 -4
-8 -14 -11 -12 -21 9 -10 22 -15 24 -54 19 -60 -8 -134 -41 -152 -68 -8 -12
-18 -38 -21 -59 l-7 -36 101 0 c61 0 101 4 101 10 0 6 5 10 11 10 5 0 7 -4 4
-10 -4 -6 8 -10 29 -10 21 0 36 5 36 12 0 9 3 9 12 0 9 -9 135 -12 507 -12
l495 0 101 98 c55 53 148 140 205 193 58 53 129 120 159 148 29 28 57 49 61
46 4 -2 6 13 4 35 -2 22 1 40 6 40 4 0 46 -35 91 -78 l82 -79 -44 -31 c-44
-30 -369 -352 -369 -365 0 -4 157 -7 349 -7 l348 0 42 58 c23 31 88 122 144
202 57 80 112 150 123 155 11 6 18 17 16 25 -1 8 18 38 43 65 26 28 65 75 88
105 153 204 286 343 335 353 19 4 32 2 32 -3 0 -6 -6 -10 -13 -10 -8 0 -26
-13 -40 -30 -15 -16 -31 -30 -35 -30 -14 0 -33 -51 -27 -71 5 -15 1 -18 -22
-16 -21 2 -30 -4 -41 -25 -7 -16 -17 -28 -23 -28 -5 0 -14 -11 -19 -25 -5 -14
-14 -25 -20 -25 -7 0 -9 -9 -4 -22 6 -20 5 -21 -9 -10 -21 17 -32 -2 -12 -22
16 -15 4 -33 -15 -21 -6 3 -14 -5 -20 -19 -6 -16 -17 -26 -30 -26 -21 0 -27
-15 -10 -25 15 -9 2 -25 -21 -25 -10 0 -19 -5 -19 -12 0 -11 -11 -25 -62 -78
-16 -15 -28 -36 -28 -47 0 -10 -22 -40 -48 -68 -26 -27 -64 -75 -84 -105 -20
-30 -59 -88 -87 -128 -28 -41 -51 -78 -51 -83 0 -5 33 -9 73 -9 l72 1 75 109
c58 85 80 110 98 110 17 0 22 6 22 26 0 26 122 181 254 324 34 36 73 79 87 95
47 55 221 215 233 215 7 0 17 -5 24 -12 9 -9 6 -18 -15 -40 -15 -15 -30 -28
-35 -28 -4 0 -32 -25 -60 -57 -29 -31 -70 -72 -91 -92 -39 -36 -117 -127 -241
-279 -50 -61 -65 -87 -57 -95 19 -19 12 -29 -15 -23 -29 8 -51 -14 -69 -69 -7
-20 -18 -31 -33 -33 -18 -3 -21 -8 -17 -23 5 -14 -5 -34 -34 -68 -23 -27 -41
-52 -41 -55 0 -3 32 -6 70 -6 l70 0 75 74 c40 41 85 92 98 113 14 22 41 57 61
78 20 21 36 41 36 46 0 4 13 18 29 32 17 14 28 27 25 30 -9 9 26 56 47 62 10
3 24 18 31 33 7 15 28 36 45 47 18 11 31 25 28 32 -5 16 127 139 171 158 28
11 40 12 51 4 11 -10 11 -15 -3 -30 -10 -11 -22 -19 -29 -19 -6 0 -24 -14 -38
-30 -15 -17 -31 -30 -36 -30 -4 0 -21 -18 -36 -40 -15 -21 -32 -38 -39 -37 -6
1 -10 -5 -8 -14 3 -21 -33 -53 -53 -46 -10 5 -15 0 -15 -14 0 -31 -27 -76 -50
-82 -11 -3 -20 -13 -20 -25 0 -11 -9 -30 -19 -43 -16 -19 -22 -22 -32 -12 -17
17 -29 16 -29 0 0 -21 -32 -80 -59 -107 -13 -14 -49 -59 -81 -100 l-59 -75 92
-3 c79 -2 93 0 104 15 15 21 11 17 109 129 74 85 119 135 157 175 9 11 25 19
35 19 26 0 34 11 20 27 -9 11 -4 22 23 51 119 130 336 332 355 332 8 0 14 5
14 10 0 14 27 13 36 -2 4 -6 0 -17 -10 -23 -9 -7 -14 -19 -11 -28 8 -19 -40
-57 -72 -57 -13 0 -22 -4 -19 -8 7 -11 2 -16 -109 -122 -55 -52 -107 -105
-116 -118 -9 -13 -27 -29 -40 -36 -13 -6 -25 -20 -27 -31 -5 -22 -30 -55 -44
-55 -12 0 -57 -52 -58 -67 0 -6 -9 -18 -19 -25 -11 -8 -45 -45 -75 -84 -31
-38 -64 -77 -73 -86 -16 -17 -11 -18 93 -18 l110 0 32 45 c17 25 38 45 47 45
8 0 26 18 40 40 28 45 50 59 67 42 7 -7 -3 -26 -33 -64 -24 -29 -46 -55 -49
-58 -3 -3 -14 -15 -24 -27 l-19 -23 496 0 497 0 0 430 c0 376 -2 430 -15 430
-8 0 -15 5 -15 11 0 6 7 9 15 5 13 -5 15 59 15 540 0 516 -1 546 -17 539 -10
-5 -67 -27 -128 -50 -60 -24 -141 -57 -180 -75 -123 -56 -129 -59 -134 -54 -3
2 0 8 5 13 12 12 150 83 194 100 19 8 64 30 100 50 36 20 85 43 110 52 l45 15
3 53 c3 48 1 53 -15 46 -10 -3 -34 -9 -53 -12 -19 -3 -40 -12 -46 -20 -10 -12
-14 -11 -28 2 -23 23 -20 32 12 38 15 3 51 14 80 23 49 17 52 20 52 51 0 30
-2 32 -22 24 -78 -29 -178 -48 -178 -33 0 16 29 35 45 28 9 -3 41 6 71 19 31
14 63 25 70 25 9 0 14 12 14 35 0 33 -2 35 -21 25 -11 -7 -23 -9 -26 -6 -3 3
6 11 21 17 25 12 37 39 16 39 -5 0 -39 -11 -76 -25 -36 -14 -73 -25 -82 -25
-8 0 -21 -8 -28 -17 -12 -16 -15 -16 -24 -3 -22 33 -21 34 173 98 l47 16 0
238 c0 204 -2 238 -15 239 -8 1 -18 2 -23 3 -8 1 -32 20 -65 51 -21 20 -68 45
-150 80 -21 9 -41 23 -44 30 -2 8 -27 24 -54 36 -53 24 -62 44 -26 54 12 4 36
18 54 31 17 13 37 24 44 24 7 0 9 3 6 7 -4 3 -17 1 -30 -5 -12 -5 -49 -22 -82
-37 -69 -31 -64 -29 -247 -123 -76 -39 -138 -69 -138 -67 0 11 150 100 302
179 150 78 434 206 458 206 6 0 10 73 10 199 l0 199 -122 -70 c-68 -39 -137
-77 -154 -84 -18 -7 -89 -48 -159 -90 -85 -50 -131 -72 -137 -66 -13 13 -4 27
30 45 31 16 293 158 367 199 28 15 78 41 113 58 l62 31 0 1697 0 1698 -71 12
c-39 7 -75 10 -79 7 -10 -6 -26 43 -17 52 3 3 18 -4 34 -14 15 -11 52 -23 81
-27 l53 -7 -3 77 -3 77 -58 21 c-33 11 -75 34 -94 51 -32 28 -35 35 -39 103
l-5 73 27 -3 c22 -2 27 -8 29 -35 1 -17 12 -41 24 -54 11 -12 23 -31 27 -41 3
-10 12 -18 21 -18 15 0 15 2 1 18 -9 9 -19 36 -23 59 -4 24 -13 46 -20 51 -8
4 -13 16 -12 27 2 17 -3 19 -36 16 -38 -3 -38 -2 -35 31 3 31 5 33 36 30 32
-2 32 -2 32 43 0 32 -5 47 -15 52 -22 8 -28 -2 -16 -25 7 -14 7 -24 -3 -38
-14 -18 -15 -18 -35 0 -14 13 -18 23 -12 34 5 8 6 23 4 32 -3 10 0 21 7 25 8
5 6 13 -6 26 -16 17 -16 24 -5 56 10 27 10 37 1 43 -7 4 -10 26 -8 56 3 43 6
49 26 52 13 2 32 -4 43 -14 18 -16 19 -16 19 2 0 27 -16 49 -24 35 -4 -6 -20
-11 -36 -11 -35 0 -37 8 -39 164 l-3 119 24 -7 c13 -3 42 -9 66 -13 23 -3 45
-11 49 -16 4 -6 7 -171 8 -366 1 -317 3 -363 19 -418 11 -34 30 -72 43 -84
l23 -22 0 426 c0 239 -4 427 -9 427 -17 0 -30 56 -45 185 -19 168 -28 346 -17
363 10 16 21 -64 21 -158 0 -36 7 -118 15 -182 29 -250 34 -174 35 529 l0 682
-24 13 c-13 7 -43 24 -67 37 -24 13 -88 50 -141 82 -53 32 -159 88 -234 125
-75 38 -132 70 -126 72 33 11 -9 123 -101 272 -33 52 -66 102 -74 112 -13 14
-11 17 17 23 24 5 35 3 46 -12 10 -13 16 -15 21 -6 5 6 21 15 36 18 20 5 27
13 27 31 0 23 -3 24 -72 24 -40 0 -80 5 -88 10 -10 7 13 10 74 10 112 0 109 8
-4 11 l-85 2 -22 36 c-27 43 -30 27 -6 -29 10 -22 26 -43 35 -46 20 -6 23 -19
9 -29 -10 -6 -11 -5 -66 65 -37 47 -101 122 -170 199 -96 107 -292 292 -380
359 -5 4 -46 37 -90 73 -44 35 -113 87 -152 113 -40 27 -73 53 -73 58 0 4 -5
8 -12 8 -6 0 -34 17 -62 38 -28 21 -76 53 -106 72 -30 19 -57 37 -60 40 -3 3
-22 14 -42 24 -21 11 -38 23 -38 28 0 15 88 13 105 -3 15 -14 102 -11 118 5 7
8 25 16 38 18 20 2 25 10 27 41 3 36 4 37 43 37 32 0 39 -3 39 -20 0 -16 7
-20 32 -20 23 0 39 -8 55 -27 l23 -26 0 46 c0 46 -1 47 -30 47 l-30 0 0 89 c0
84 -2 91 -25 109 -14 11 -25 25 -25 31 0 6 -17 11 -40 11 -22 0 -40 5 -40 10
0 6 9 10 21 10 11 0 17 5 14 10 -8 12 -35 13 -35 2z m-314 -652 c46 -30 76
-45 80 -38 4 5 0 14 -7 19 -11 7 -11 9 2 9 8 0 24 -7 35 -15 16 -13 17 -16 4
-25 -12 -9 -10 -10 9 -5 14 4 26 2 30 -4 4 -6 30 -19 57 -29 49 -17 84 -38
131 -79 14 -13 32 -23 39 -23 8 0 14 -4 14 -10 0 -5 7 -10 15 -10 8 0 15 -4
15 -10 0 -5 13 -16 28 -24 35 -18 172 -150 172 -165 0 -6 4 -11 10 -11 12 0
70 -60 70 -72 0 -5 5 -6 12 -2 7 4 8 3 4 -4 -7 -11 55 -82 72 -82 4 0 19 -18
32 -41 14 -22 32 -48 41 -57 14 -15 32 -62 24 -62 -2 0 -27 24 -57 53 -72 70
-186 171 -245 215 -26 21 -52 42 -58 48 -5 6 -21 17 -35 26 -14 8 -51 39 -83
69 -32 29 -68 60 -81 68 -168 114 -269 183 -276 192 -8 9 -163 115 -180 122
-8 4 0 5 19 2 19 -3 67 -27 107 -55z m-112 -40 c12 0 51 -14 86 -31 76 -36
337 -209 370 -244 13 -14 29 -25 37 -25 7 0 13 -6 13 -14 0 -8 4 -16 9 -18 38
-14 351 -285 351 -304 0 -5 55 -78 78 -102 14 -15 16 -42 3 -42 -5 0 -16 11
-25 25 -10 15 -22 22 -31 19 -19 -8 -19 -19 0 -38 9 -9 11 -17 5 -21 -5 -3
-10 -1 -10 4 0 6 -6 11 -14 11 -8 0 -16 7 -20 15 -3 8 -14 15 -23 15 -10 0
-32 12 -49 28 -87 76 -114 99 -114 93 0 -3 -6 1 -13 9 -15 19 -198 166 -249
200 -20 14 -74 52 -119 85 -46 33 -151 103 -234 155 -178 112 -234 152 -235
164 0 5 7 3 15 -4 8 -6 23 -9 36 -5 25 8 48 13 67 14 6 1 12 10 12 22 0 19 1
19 16 5 8 -9 26 -16 38 -16z m2006 -2292 c0 -6 8 -16 17 -23 16 -12 16 -16 3
-41 -8 -16 -16 -31 -17 -33 -1 -2 -9 2 -18 9 -20 17 -29 7 -31 -35 -1 -27 3
-35 20 -37 28 -4 34 -41 36 -226 l1 -154 -23 7 c-43 13 -49 28 -53 126 -2 52
-7 124 -10 160 -5 44 -3 69 4 73 8 5 6 16 -4 36 -25 48 6 127 46 118 10 -2 13
5 11 21 -2 15 0 21 7 17 6 -4 11 -12 11 -18z m-2110 -1608 c0 -64 -3 -80 -15
-80 -11 0 -15 -11 -15 -40 0 -27 -4 -40 -14 -40 -7 0 -19 -7 -26 -15 -18 -21
-141 -20 -182 1 -29 15 -34 15 -59 0 -34 -20 -59 -21 -59 -1 0 10 11 15 35 15
34 0 35 1 35 40 0 39 1 40 33 40 18 0 37 4 43 9 26 24 53 22 85 -8 36 -35 42
-37 59 -16 10 13 9 15 -9 15 -25 0 -29 31 -6 50 8 7 15 16 15 21 0 5 -7 9 -15
9 -8 0 -15 -7 -15 -15 0 -20 -13 -19 -41 3 -14 12 -20 25 -16 35 8 21 31 22
51 2 8 -8 31 -15 50 -15 34 0 36 2 36 35 0 24 5 35 15 35 12 0 15 -16 15 -80z
m1979 -348 c20 -37 -54 -243 -169 -474 -87 -173 -149 -274 -263 -426 -22 -29
-47 -66 -56 -82 -62 -114 -471 -558 -676 -733 -38 -33 -98 -84 -133 -114 -34
-31 -95 -82 -135 -115 -39 -34 -87 -73 -104 -88 -206 -173 -493 -385 -753
-557 -69 -45 -132 -87 -140 -93 -48 -33 -178 -114 -265 -164 -55 -32 -122 -71
-148 -87 -27 -16 -53 -29 -60 -29 -20 0 18 31 74 58 69 35 80 54 50 85 -17 19
-19 26 -9 31 10 5 10 7 1 12 -16 7 -17 56 -1 72 9 9 9 12 -1 12 -16 0 -43 -27
-33 -33 4 -2 1 -2 -6 -1 -16 4 -102 -35 -102 -46 0 -5 -9 -6 -20 -3 -11 3 -20
1 -20 -5 0 -10 -133 -92 -149 -92 -4 0 -73 -34 -154 -76 -82 -41 -153 -74
-158 -72 -9 3 21 21 181 106 104 55 149 80 250 141 52 32 118 70 145 86 98 54
381 229 430 265 28 20 93 68 145 106 52 39 127 91 165 116 84 56 312 232 469
363 34 28 81 66 106 85 24 19 72 59 105 89 33 29 105 88 160 129 55 41 130
101 167 134 36 32 70 58 75 58 5 0 17 16 27 35 14 25 26 35 43 35 14 0 23 6
23 15 0 22 69 95 85 89 9 -4 12 0 9 13 -4 14 21 46 95 120 56 56 101 108 101
116 0 9 11 29 25 45 14 17 25 35 25 41 0 6 5 11 10 11 13 0 13 -6 -2 -30 -10
-16 -10 -23 3 -35 14 -14 22 -7 84 82 117 169 334 532 406 681 38 78 74 142
79 142 5 0 14 -8 19 -18z m-14 -1112 c-8 -82 11 -200 32 -200 7 0 13 7 13 15
0 25 32 17 90 -22 94 -62 111 -79 95 -93 -8 -6 -19 -9 -25 -5 -5 3 -11 1 -11
-4 -1 -6 -2 -14 -3 -18 -1 -5 -18 -33 -39 -63 -20 -30 -59 -87 -85 -127 -26
-39 -97 -123 -158 -185 l-110 -114 -79 73 c-74 68 -118 94 -98 58 13 -23 124
-135 134 -135 5 0 9 -9 9 -19 0 -24 -106 -113 -129 -109 -10 2 -15 12 -13 27
2 15 0 21 -7 17 -14 -9 -14 -43 0 -48 19 -6 -30 -57 -74 -76 -23 -10 -48 -26
-56 -35 -7 -10 -20 -17 -27 -17 -8 0 -14 -3 -14 -8 0 -8 -93 -32 -127 -32 -38
0 -80 -52 -106 -130 -3 -8 -6 -1 -6 17 -1 17 -5 35 -11 38 -5 3 -10 17 -10 31
0 31 -13 30 -44 -3 -18 -19 -24 -34 -20 -50 4 -14 2 -23 -5 -23 -6 0 -11 10
-11 23 0 12 -4 28 -9 35 -10 16 -20 7 -51 -45 -12 -20 -28 -33 -39 -33 -11 0
-23 -4 -26 -10 -3 -5 -15 -10 -26 -10 -10 0 -19 -6 -19 -12 -1 -7 -24 -30 -53
-51 -87 -63 -190 -164 -184 -179 11 -30 -8 -37 -41 -16 -17 11 -32 23 -32 27
0 12 49 54 185 156 72 55 139 108 150 119 32 32 210 195 309 282 98 87 139
129 212 219 27 33 54 67 61 75 51 63 245 328 281 385 46 71 124 225 154 303 9
23 19 42 23 42 4 0 4 -32 0 -70z m-3686 -2794 c-13 -13 -256 -101 -361 -130
-174 -48 -234 -59 -291 -52 l-50 7 15 -23 c8 -13 18 -42 22 -66 5 -35 3 -46
-14 -65 -18 -18 -22 -20 -30 -7 -5 8 -10 22 -10 31 0 8 -16 30 -35 49 -19 19
-35 42 -35 52 0 10 -16 41 -35 68 -19 28 -31 50 -26 50 6 0 12 -4 15 -9 10
-15 96 -24 112 -10 8 6 81 20 162 30 171 21 492 67 507 73 13 6 59 7 54 2z
m1693 -932 c-69 -51 -80 -84 -41 -120 12 -10 36 -43 53 -72 17 -30 39 -66 48
-80 9 -15 17 -35 17 -44 1 -10 5 -18 10 -18 7 0 23 -31 83 -170 11 -25 28 -61
38 -81 13 -25 16 -46 11 -69 -9 -44 -11 -40 -119 175 -50 99 -121 231 -158
294 -76 128 -76 110 1 166 74 54 91 64 104 65 8 0 -13 -21 -47 -46z m-191
-146 c24 -20 70 -100 141 -243 134 -271 269 -526 302 -573 18 -27 51 -80 71
-118 21 -38 47 -84 58 -103 11 -18 23 -47 26 -64 4 -18 16 -36 29 -43 l22 -11
-39 -60 c-21 -33 -73 -95 -114 -138 l-76 -79 -46 25 c-53 28 -129 84 -210 154
-32 28 -66 56 -77 63 -23 17 -23 32 0 32 10 0 40 -22 67 -50 29 -29 68 -57 95
-67 25 -9 71 -38 103 -65 32 -26 64 -48 71 -48 16 0 118 118 151 175 25 41 25
85 1 85 -13 0 -56 53 -56 69 0 8 -28 44 -92 120 -77 91 -283 436 -363 609 -41
88 -81 201 -94 264 -16 73 -5 95 30 66z m467 -571 c10 -12 103 -189 152 -287
40 -80 50 -86 99 -60 38 19 41 19 41 3 0 -22 -9 -35 -35 -49 -11 -6 -22 -20
-24 -30 -3 -20 -29 -54 -41 -54 -5 0 -11 12 -15 28 -16 64 -62 163 -123 262
-68 111 -102 174 -102 187 0 13 38 13 48 0z m1735 -630 c50 -18 66 -34 43 -43
-10 -4 -22 -2 -29 5 -12 12 -47 15 -47 3 0 -4 -21 -27 -46 -52 -25 -25 -60
-60 -77 -79 -174 -184 -312 -321 -323 -321 -8 0 -14 -5 -14 -12 0 -6 -10 -22
-22 -35 -25 -27 -68 -31 -68 -7 0 19 357 383 449 457 35 29 67 62 72 75 10 26
12 26 62 9z"/>
        <path d="M7440 10727 c0 -20 -5 -27 -20 -27 -11 0 -20 -7 -20 -15 0 -8 -9 -15
-20 -15 -13 0 -20 7 -20 20 0 17 -7 20 -40 20 -39 0 -40 -1 -40 -35 0 -34 -1
-35 -40 -35 l-40 0 0 -40 c0 -38 2 -40 30 -40 36 0 41 -27 10 -50 -32 -23 -24
-30 36 -30 62 0 84 14 84 54 0 26 1 26 79 26 79 0 80 0 83 -27 2 -22 9 -29 31
-31 15 -2 27 -8 27 -13 0 -5 23 -9 50 -9 45 0 50 -2 50 -22 0 -17 3 -19 9 -9
7 11 10 11 15 0 3 -8 4 1 1 19 -2 17 0 32 5 32 6 0 10 -4 10 -10 0 -5 4 -10 9
-10 14 0 0 41 -15 47 -8 3 -14 12 -14 20 0 9 -14 42 -32 74 -31 56 -33 58 -51
41 -18 -16 -19 -15 -12 23 4 22 3 35 -2 30 -11 -15 -83 -19 -83 -6 0 6 -10 11
-22 11 -12 0 -30 7 -40 17 -17 15 -18 15 -18 -10z"/>
        <path d="M0 9562 c0 -933 1 -1030 16 -1036 32 -12 64 -7 64 12 0 16 18 27 82
51 24 9 26 13 21 51 -8 54 22 85 78 81 36 -2 38 0 33 24 -3 17 1 27 11 31 8 4
15 18 15 33 1 24 2 24 14 9 19 -25 40 -24 26 1 -26 50 4 140 34 100 6 -9 22
-19 34 -23 18 -6 25 -4 29 12 3 15 17 22 50 27 26 4 53 13 61 21 8 8 27 18 43
21 27 5 29 9 29 50 0 29 -7 53 -21 72 -24 33 -19 51 14 51 27 0 67 26 67 43 0
7 9 19 19 26 16 12 21 32 26 100 4 47 12 109 20 136 20 75 38 222 32 260 -5
31 -47 107 -72 130 -5 6 -31 35 -57 65 -67 79 -136 150 -147 150 -13 0 -127
131 -135 155 -9 29 -136 159 -171 175 -29 14 -155 137 -155 151 0 4 -13 17
-30 29 l-30 21 0 -1029z"/>
        <path d="M0 6364 l0 -985 96 3 c53 1 98 6 100 10 9 14 42 9 75 -11 17 -10 27
-20 22 -22 -24 -11 -53 -71 -53 -113 0 -40 2 -44 23 -40 l22 5 -23 -12 c-12
-7 -22 -15 -22 -20 0 -10 -40 1 -64 17 -14 9 -23 10 -36 1 -14 -8 -24 -7 -41
5 -21 13 -27 13 -61 -1 l-38 -16 0 -198 c0 -156 3 -197 13 -191 6 4 32 24 57
44 52 43 195 140 206 140 8 0 100 77 153 127 19 18 38 33 43 33 4 0 8 5 8 11
0 7 -8 9 -20 5 -11 -3 -28 -9 -38 -12 -16 -5 -19 0 -17 25 1 26 -1 29 -17 20
-16 -9 -18 -5 -18 39 0 32 -5 54 -15 62 -17 14 -20 46 -5 55 6 4 29 4 50 0 46
-8 52 -28 20 -65 -11 -13 -20 -29 -20 -35 0 -19 27 -26 54 -15 19 7 28 5 38
-7 11 -14 14 -8 19 41 4 32 14 65 22 74 14 13 14 19 2 42 -14 28 -55 48 -55
27 0 -6 -6 -2 -14 8 -11 16 -11 22 3 46 15 27 15 29 -4 43 -19 15 -18 15 17
16 20 0 38 -6 41 -12 3 -8 9 -1 16 15 6 15 15 27 21 27 5 0 10 7 10 15 0 8 -6
15 -14 15 -8 0 -16 5 -18 11 -4 11 -58 -8 -58 -21 0 -4 -11 -5 -25 -2 -18 3
-26 -1 -31 -14 -15 -49 -44 -72 -44 -35 0 28 -9 27 -77 -13 -79 -46 -103 -53
-102 -29 3 47 15 65 53 78 22 8 43 20 48 29 4 8 16 12 27 9 28 -7 81 35 81 65
0 21 4 24 28 20 23 -5 34 3 82 58 30 35 62 64 70 64 8 1 35 17 60 35 25 19 60
42 78 51 17 9 32 22 32 29 0 16 -33 30 -38 16 -2 -6 -8 -11 -14 -11 -6 0 -8 7
-4 15 4 11 -1 15 -19 15 -13 0 -26 4 -29 8 -9 14 24 52 45 52 10 0 19 7 19 15
0 8 9 15 20 15 11 0 20 4 20 9 0 8 109 85 133 94 7 2 9 7 5 11 -3 4 -23 -1
-45 -12 -21 -10 -65 -27 -98 -37 -33 -10 -86 -28 -117 -41 -32 -13 -64 -24
-72 -24 -26 0 -7 26 32 43 35 15 170 97 220 132 29 21 28 41 -5 62 -16 9 -33
23 -39 30 -10 11 -38 18 -96 22 -19 2 -5 32 22 53 25 18 30 29 30 62 0 27 -3
36 -9 27 -6 -9 -11 -10 -15 -2 -4 6 -16 11 -27 11 -25 0 -24 16 1 37 11 10 20
23 20 29 0 10 -93 26 -140 25 -19 0 -125 -17 -167 -26 -18 -4 -33 -4 -33 1 1
11 65 44 85 44 15 0 85 80 85 97 0 6 -6 13 -14 16 -8 3 -16 16 -18 29 -3 21
-7 23 -56 20 -56 -3 -58 1 -25 40 13 14 12 18 -7 28 -17 9 -19 14 -9 26 6 8 9
15 5 15 -3 1 -9 2 -13 4 -5 1 -26 5 -48 9 -56 11 -105 29 -105 38 0 4 3 7 8 7
20 -3 32 2 32 16 0 8 -4 15 -9 15 -5 0 -8 8 -7 18 1 12 -5 16 -21 15 -27 -3
-49 22 -36 40 6 6 13 30 15 53 6 40 6 40 -37 53 -47 14 -57 27 -48 60 3 12 0
28 -7 36 -6 8 -9 23 -5 35 9 28 -10 48 -51 56 -18 3 -38 12 -45 20 -6 8 -15
14 -20 14 -5 0 -9 -427 -9 -986z"/>
        <path d="M1175 6460 c-3 -5 -2 -18 3 -27 5 -10 12 -37 16 -61 3 -24 10 -51 15
-60 5 -9 23 -57 41 -107 29 -79 128 -290 277 -590 43 -86 109 -187 163 -249
14 -16 49 -57 79 -90 29 -34 89 -106 132 -161 43 -55 124 -158 180 -230 56
-71 120 -157 142 -190 79 -116 237 -304 237 -282 0 23 -353 499 -456 614 -35
39 -80 93 -100 120 -21 26 -40 50 -44 53 -3 3 -27 32 -52 65 -25 33 -54 69
-65 80 -120 133 -232 346 -429 815 -24 58 -50 119 -58 135 -7 17 -26 63 -41
103 -28 75 -30 78 -40 62z"/>
        <path d="M1626 6343 c-3 -3 -6 -28 -6 -55 0 -26 -4 -48 -10 -48 -5 0 -10 -24
-11 -52 0 -29 -4 -75 -8 -103 -7 -40 -4 -61 15 -115 32 -92 71 -187 98 -240
154 -298 225 -421 301 -515 37 -46 59 -86 113 -205 37 -82 101 -193 102 -177
0 5 -11 33 -25 62 -43 95 -95 242 -106 300 -6 31 -21 90 -35 132 -14 42 -33
105 -43 142 -11 36 -49 152 -86 256 -60 171 -92 270 -128 390 -6 22 -17 51
-24 65 -7 14 -13 33 -13 43 0 9 -3 17 -6 17 -4 0 -13 -8 -20 -17 -13 -17 -13
-17 -14 0 0 9 -4 17 -10 17 -5 0 -10 18 -10 40 0 22 -4 40 -8 40 -5 0 -7 -15
-5 -32 l4 -33 -20 24 c-12 13 -21 31 -21 42 0 19 -13 32 -24 22z"/>
        <path d="M2600 6224 c0 -10 -6 -14 -15 -10 -14 5 -21 -21 -16 -61 1 -7 -5 -13
-14 -13 -8 0 -15 -7 -15 -15 0 -8 5 -15 10 -15 18 0 10 -28 -9 -33 -12 -3 -24
-20 -32 -45 -10 -35 -9 -43 4 -56 9 -9 20 -16 26 -16 5 0 14 -6 18 -14 9 -17
59 -28 86 -20 24 8 21 31 -10 95 -23 46 -28 67 -28 137 0 45 -1 82 -2 82 -2 0
-3 -7 -3 -16z"/>
        <path d="M1057 5285 c-10 -7 -51 -19 -90 -26 -40 -6 -96 -23 -125 -37 -29 -14
-68 -25 -85 -26 -18 -1 -34 -3 -37 -6 -3 -3 -50 -35 -105 -72 -55 -37 -125
-85 -155 -107 -30 -22 -109 -72 -175 -112 -66 -39 -122 -75 -125 -78 -3 -4
-40 -29 -82 -56 l-78 -50 0 -244 0 -243 44 36 c24 20 48 36 53 36 5 0 24 15
42 34 18 19 47 37 63 40 18 3 44 21 61 42 41 48 277 225 357 267 51 28 176
108 260 167 69 48 221 144 280 176 19 11 41 25 48 32 7 6 18 12 23 12 5 0 15
11 21 25 7 16 17 24 25 20 10 -3 13 1 11 16 -2 15 -18 26 -58 39 -54 19 -56
18 -138 -2 -46 -11 -89 -27 -97 -34 -7 -8 -22 -14 -33 -14 -18 0 -19 3 -9 25
7 14 17 25 24 25 13 0 28 37 25 58 -2 6 7 16 20 22 28 11 77 50 63 49 -5 0
-18 -6 -28 -14z"/>
        <path d="M1195 4901 c-70 -39 -162 -93 -218 -127 -232 -141 -341 -212 -345
-223 -7 -20 146 62 280 150 67 45 148 98 178 118 30 20 61 42 68 49 7 6 19 12
25 12 7 1 26 12 42 25 39 32 32 31 -30 -4z"/>
        <path d="M1665 4720 c-16 -5 -46 -13 -65 -18 -37 -10 -250 -131 -285 -162 -11
-9 -27 -21 -36 -26 -9 -5 -32 -21 -50 -36 -102 -81 -269 -201 -309 -220 -49
-25 -110 -76 -110 -92 0 -6 -14 -20 -30 -31 -65 -43 -21 -42 90 3 36 14 85 37
110 51 25 13 110 57 190 97 171 85 245 136 354 242 45 44 107 96 139 117 43
29 57 44 55 58 -4 24 -13 27 -53 17z"/>
        <path d="M1770 4654 c0 -9 19 -55 43 -102 24 -48 53 -108 65 -133 18 -41 144
-217 287 -404 137 -177 374 -410 395 -388 3 3 0 8 -7 10 -28 10 -69 51 -120
120 -94 128 -164 233 -159 241 3 5 -16 33 -42 63 -26 30 -65 80 -88 110 -73
97 -184 243 -229 299 -25 30 -63 88 -86 128 -42 71 -59 87 -59 56z"/>
        <path d="M2488 1137 c-28 -25 -38 -43 -38 -64 0 -19 -9 -38 -26 -54 -22 -21
-25 -30 -19 -63 5 -36 -2 -91 -26 -191 -29 -118 -51 -214 -56 -245 l-6 -35 48
55 c64 75 73 100 80 226 7 119 36 251 67 301 12 21 18 46 16 68 l-3 36 -37
-34z"/>
        <path d="M2208 995 c-3 -3 -81 -7 -174 -9 -99 -1 -181 -8 -197 -14 -16 -7 -55
-12 -88 -12 -33 0 -69 -5 -79 -10 -10 -6 -41 -12 -67 -15 -92 -10 -254 -52
-269 -71 -6 -7 -20 -11 -32 -7 -12 3 -22 1 -22 -3 0 -5 -53 -10 -117 -11 -75
-2 -119 -7 -124 -14 -4 -7 -33 -12 -68 -13 -34 0 -61 -4 -61 -8 0 -4 -7 -8
-15 -8 -8 0 -15 -8 -15 -18 0 -26 -73 -25 -78 1 -4 18 -22 24 -22 7 0 -5 -7
-10 -15 -10 -8 0 -15 -5 -15 -11 0 -5 4 -8 9 -4 5 3 12 1 16 -5 3 -5 -1 -10
-9 -10 -9 0 -16 -7 -16 -15 0 -8 -7 -15 -15 -15 -8 0 -15 5 -15 11 0 13 -151
3 -160 -11 -9 -13 -65 -37 -77 -33 -6 2 -31 -5 -54 -16 -24 -12 -57 -21 -75
-21 -26 0 -36 -7 -52 -35 -14 -23 -27 -33 -40 -30 -10 2 -25 -1 -33 -6 -12 -8
-12 -10 1 -18 8 -6 11 -13 7 -18 -5 -4 -11 -2 -15 4 -4 7 -31 13 -60 14 -62 3
-60 11 5 17 71 6 103 55 37 58 -16 0 -36 3 -44 6 -8 3 -12 3 -7 1 11 -7 8 -30
-6 -36 -6 -2 -21 -1 -32 4 -11 4 -41 8 -67 8 -47 1 -48 0 -48 -29 0 -29 1 -30
52 -30 28 0 48 -3 44 -7 -4 -4 -27 -6 -51 -4 l-45 3 0 -196 c0 -190 1 -196 20
-196 18 0 20 6 19 53 -1 29 3 62 9 74 11 19 65 47 75 37 2 -2 12 5 22 16 11
13 14 20 6 20 -9 0 -8 5 3 15 8 8 31 15 50 15 29 0 36 -4 36 -20 0 -20 15 -25
44 -14 20 8 21 24 2 24 -8 0 -18 4 -21 10 -4 6 7 10 24 10 24 0 31 -4 31 -19
0 -21 41 -31 118 -31 31 1 42 -3 42 -15 0 -8 4 -15 9 -15 5 0 13 -10 17 -22 5
-16 1 -27 -16 -40 -17 -14 -21 -24 -16 -44 4 -15 2 -32 -5 -40 -6 -8 -9 -23
-6 -35 4 -15 -2 -25 -23 -38 -28 -16 -28 -18 -12 -35 16 -16 16 -18 -6 -36
-12 -10 -22 -21 -22 -24 0 -3 358 -6 795 -6 l794 0 26 88 c15 48 50 152 80
232 29 80 58 168 64 195 23 104 70 485 59 485 -3 0 -7 -2 -10 -5z"/>
        <path d="M2475 571 c-15 -22 -32 -42 -39 -44 -7 -3 -40 -41 -74 -86 -73 -96
-99 -164 -112 -299 -15 -151 -17 -142 34 -142 l43 0 7 65 c9 92 39 178 90 265
39 67 96 218 96 255 0 30 -21 24 -45 -14z"/>
        <path d="M2230 360 c0 -8 -11 -25 -24 -39 -21 -23 -126 -281 -126 -310 0 -7
25 -11 64 -11 l63 0 7 68 c3 37 11 118 17 181 6 62 8 116 5 119 -3 3 -6 -1 -6
-8z"/>
    </g>
</svg>
